<svg xmlns="http://www.w3.org/2000/svg" viewBox="0 0 100 100" enable-background="new 0 0 100 100"><linearGradient id="a" gradientUnits="userSpaceOnUse" x1="-656.612" y1="271.102" x2="-622.568" y2="237.053" gradientTransform="matrix(.999 0 0 -.999 688.42 304.19)"><stop offset="0" stop-color="#010101"/><stop offset="1" stop-color="#fff"/></linearGradient><path fill="url(#a)" d="M50 61.8c10.7 14.6 21.1-4.1 21.1-15.3 0-13.2-13.4-20.6-21.1-20.6-12.3 0-24.1 10.2-24.1 24.1 0 15.5 13.5 24.1 24.1 24.1-2.4-.3-10.4-2.1-10.5-20.5-.1-12.5 4.1-17.5 10.5-15.3.1.1 7.1 2.8 7.1 11.8C57 59 50 61.8 50 61.8z"/><linearGradient id="b" gradientUnits="userSpaceOnUse" x1="-621.026" y1="238.594" x2="-655.071" y2="272.644" gradientTransform="matrix(.999 0 0 -.999 688.42 304.19)"><stop offset="0" stop-color="#010101"/><stop offset="1" stop-color="#fff"/></linearGradient><path fill="url(#b)" d="M49.9 38.4c-7.1-2.4-15.7 3.4-15.7 15 0 19 14.1 20.7 15.8 20.7 12.3 0 24.1-10.2 24.1-24.1 0-15.5-13.5-24.1-24.1-24.1 2.9-.4 15.9 3.2 15.9 20.8 0 11.5-9.6 17.8-15.9 15.1-.1-.1-7.1-2.8-7.1-11.8 0-8.9 7-11.6 7-11.6z"/></svg>