<svg xmlns="http://www.w3.org/2000/svg" viewBox="0 0 100 100" enable-background="new 0 0 100 100"><g fill="#515251"><path d="M19.5 33.1c1.7 0 3 1.3 3 3s-1.3 3-3 3-3-1.3-3-3 1.4-3 3-3zm2.6 9.8v24.3H17V42.9h5.1zM37.9 42.9h5.2V59h-5.2v-1.9c-1.4 2.2-3.4 2.5-4.8 2.5-2.3 0-4.2-.6-6-2.4-1.7-1.8-2.3-3.9-2.3-6 0-2.7 1-5 2.5-6.5 1.4-1.4 3.3-2.2 5.6-2.2 1.4 0 3.6.3 5 2.3v-1.9zM31.4 48c-.5.5-1.2 1.5-1.2 2.9s.6 2.4 1.1 2.9c.7.8 1.8 1.3 3.1 1.3 1 0 2-.4 2.7-1.1.7-.6 1.3-1.7 1.3-3 0-1.2-.4-2.2-1.2-3-.8-.8-1.9-1.1-2.9-1.1-1.2 0-2.3.4-2.9 1.1zM63.8 59h-5.2v-1.9c-.8 1.2-2.2 2.5-5.1 2.5-2.4 0-4.1-.8-5.5-2.2-1.7-1.7-2.5-4-2.5-6.4 0-2.7 1-4.9 2.5-6.3 1.4-1.3 3.4-2.2 5.6-2.2 1.8 0 3.7.6 5 2.3v-12h5.2V59zM52.1 47.9c-.8.7-1.3 1.8-1.3 3.1 0 1.2.5 2.2 1.3 3 .8.8 1.8 1.1 2.7 1.1 1 0 2.1-.4 3-1.2.6-.6 1.2-1.5 1.2-2.9s-.5-2.3-1.2-3c-.8-.9-1.8-1.2-2.9-1.2-1.1.1-2 .4-2.8 1.1zM83.5 51.9h-12c0 .9.3 2 1 2.7.8.9 1.9 1 2.7 1 .8 0 1.5-.1 2.1-.5.1 0 .7-.4 1.1-1.3l4.9.5c-.7 2.3-2.2 3.5-3.1 4-1.5.9-3.3 1.2-5.1 1.2-2.4 0-4.5-.4-6.4-2.3-1.4-1.4-2.4-3.5-2.4-6.2 0-2.3.8-4.7 2.4-6.3 1.9-1.9 4.4-2.3 6.2-2.3s4.4.3 6.4 2.4c1.9 2 2.3 4.5 2.3 6.5v.6zm-4.8-3.1c0-.1-.3-1.2-1-1.9-.6-.5-1.4-.9-2.4-.9-1.3 0-2.1.5-2.6 1-.4.4-.8 1-.9 1.7h6.9z"/></g></svg>