<svg xmlns="http://www.w3.org/2000/svg" viewBox="0 0 100 100" enable-background="new 0 0 100 100"><path fill="#515251" d="M49.9 68.6c-5 0-9.1-.8-10.8-1.8l2 3.2.7 10s8 5.7 15.9 0l.6-10.1 1.7-2.8c-1.8.9-5.6 1.5-10.1 1.5zm10.9-13.7c-.3.3-.7.5-1 .6-.3.1-.7.2-1.1.2-.4 0-.6-.1-.8-.2-.2-.2-.3-.4-.3-.6v-.2c0-.2.1-.4.2-.6.1-.2.3-.4.5-.7.2-.2.4-.5.6-.7.2-.2.4-.5.6-.7.2-.2.3-.4.4-.6.1-.2.2-.3.2-.4 0-.1 0-.1-.1-.2 0 0-.1-.1-.2-.1-.2 0-.4 0-.6.1-.2.1-.4.2-.6.4l-.6.6c-.2.2-.4.4-.5.7-.2.2-.3.5-.4.7l-.3.6-.1.3c-.1.1-.1.2-.2.4-.1.1-.1.3-.2.4-.1.1-.1.3-.2.4l-.2.4c0 .1-.1.2-.1.2 0 .1-.1.1-.1.3s-.1.3-.2.5l-.2.6c-.1.2-.2.4-.2.6-.1.2-.1.3-.2.5-.1.1-.1.2-.1.3 0 .1-.1.3-.2.4-.1.1-.1.2-.2.3-.1.1-.2.2-.3.2-.1.1-.2.1-.4.1s-.3 0-.4-.1c-.1-.1-.2-.2-.2-.5v-.3c0-.1.1-.2.1-.3 0-.1.1-.2.1-.3 0-.1.1-.2.1-.3.3-.6.5-1.1.8-1.7.3-.6.5-1.1.8-1.7.1-.1.1-.2.1-.3-.3.3-.6.6-.9.8-.3.2-.6.4-.9.5-.3.1-.6.2-.9.2-.2 0-.4 0-.5-.1-.1-.1-.2-.1-.3-.3-.1-.1-.1-.2-.2-.4v-.2c-.1.1-.2.1-.2.2-.3.2-.6.4-.9.5-.3.1-.5.2-.8.2-.2 0-.4-.1-.6-.2-.1-.2-.2-.4-.2-.8 0-.3 0-.6.1-.9-.1.2-.3.4-.5.7l-.6.6c-.2.2-.5.3-.8.4-.3.1-.6.2-1 .2-.2 0-.3 0-.4-.1-.1 0-.3-.1-.4-.2-.1-.1-.2-.2-.3-.4-.1-.2-.1-.4-.1-.6V54c0-.2.1-.4.2-.8s.3-.8.5-1.4c.2-.6.5-1.2.9-2 .1-.2.2-.4.3-.5.1-.1.3-.1.4-.1h.2c.1 0 .1 0 .2.1.1 0 .1.1.1.2s.1.1.1.2v.2c0 .1-.1.2-.2.4s-.2.3-.3.5l-.3.6c-.1.2-.2.5-.3.7-.1.2-.2.5-.3.7-.1.3-.1.5-.1.7 0 .1 0 .2.1.3 0 .1.1.1.2.1.3 0 .6-.1.9-.3.3-.2.5-.4.8-.7.2-.3.4-.6.6-1s.3-.7.5-.9c.1-.2.2-.4.2-.6.1-.2.1-.4.2-.6.1-.2.2-.3.3-.5.1-.1.2-.2.4-.2s.3.1.4.2c.1.1.1.3.1.5 0 .1 0 .2-.1.4s-.1.4-.2.6c-.1.2-.2.5-.3.7-.1.3-.2.5-.3.8-.1.3-.2.5-.2.8-.1.3-.1.5-.1.7 0 .2.1.3.3.3.1 0 .3-.1.5-.2s.4-.2.7-.4c.1 0 .1-.1.2-.1.1-.3.1-.5.2-.8.2-.4.3-.9.5-1.3s.3-.8.5-1.2l2.1-5.4c.1-.2.2-.4.3-.5.1-.1.3-.1.4-.1.1 0 .3 0 .4.1.1.1.2.2.2.5 0 .1 0 .2-.1.3 0 .1-.1.2-.2.4-.1.3-.3.6-.4 1-.2.4-.3.8-.5 1.2-.2.4-.4.9-.6 1.4-.2.5-.4 1-.6 1.4-.2.5-.4.9-.5 1.3-.2.4-.3.8-.4 1.1-.1.1-.1.3-.2.4 0 .2-.1.3-.1.5v.2s.1.1.2.1.2 0 .4-.1c.1-.1.3-.2.5-.3.2-.1.4-.2.5-.4.2-.1.4-.3.6-.5.2-.2.4-.3.5-.5s.3-.3.4-.4l.1-.1c.1-.2.2-.5.2-.7 0-.1.1-.2.2-.4s.1-.4.2-.5c.1-.2.2-.3.3-.5.1-.1.2-.2.3-.2.2 0 .3 0 .4.1.1.1.1.2.1.4v.8l.6-.6c.2-.2.4-.4.6-.5.2-.2.4-.3.7-.4.2-.1.5-.1.7-.1.2 0 .3 0 .5.1.2 0 .3.1.4.2l.3.3c.1.1.1.3.1.5s-.1.5-.2.7c-.1.3-.3.5-.4.8-.2.3-.4.5-.6.8-.2.2-.4.5-.6.7-.2.2-.3.4-.4.5-.1.1-.2.2-.2.3 0 .1 0 .1.1.2 0 0 .1.1.2.1s.2 0 .4-.1.4-.2.7-.5c.3-.2.6-.5 1.1-.9.3-.3.6-.6 1-.9l2-17.3c-2 1-7.7 2-14.4 2s-12.3-1-14.4-2l1.5 15.8c.1-.3.2-.5.3-.8.2-.6.4-1.1.7-1.6l.9-1.5c.3-.5.6-.9 1-1.3s.7-.7 1.1-1c.4-.3.7-.5 1.1-.7.4-.2.8-.2 1.1-.2.4 0 .8.1 1.2.4.4.2.8.6 1.1 1.1.1.1.1.2.2.4v.3c0 .3-.1.4-.2.6-.1.1-.3.2-.4.2-.2 0-.3-.1-.4-.2-.1-.2-.3-.4-.4-.7-.2-.3-.3-.5-.5-.6-.2-.1-.4-.2-.6-.2-.3 0-.7.1-1.1.4-.4.3-.7.6-1.1 1.1-.4.4-.7 1-1.1 1.5s-.6 1.2-.9 1.8c-.3.6-.5 1.2-.6 1.8-.2.6-.2 1.1-.2 1.6v.5c0 .2.1.3.1.4.1.1.1.2.2.3.1.1.2.1.4.1s.4-.1.6-.2c.2-.1.5-.3.7-.5.2-.2.5-.4.7-.6l.7-.7c.2-.2.4-.5.5-.7.2-.2.3-.4.4-.6l.7-2c.1-.2.2-.4.3-.5.1-.1.3-.1.4-.1h.2c.1 0 .1.1.2.1s.1.1.1.2v.3c0 .3 0 .5-.1.8 0 .2-.1.5-.2.7-.1.2-.2.4-.2.7-.1.2-.2.5-.3.7 0 0-.1.1-.1.3 0 .1-.1.3-.2.6-.1.2-.1.5-.2.7-.1.3-.2.6-.3.8-.1.3-.2.6-.3.8-.1.3-.2.5-.2.7-.1.2-.1.4-.2.6 0 .2-.1.2-.1.3 0 .1-.1.2-.1.3-.1.1-.1.2-.2.3-.1.1-.1.2-.2.2-.1.1-.2.1-.3.1-.2 0-.3-.1-.3-.2-.1-.1-.1-.3-.1-.6v-.2c0-.1 0-.3.1-.5s.1-.5.2-.8c.1-.3.2-.6.3-1l.3-.9c-.2.3-.5.6-.8.8-.3.3-.6.5-.9.7-.3.2-.6.4-.9.5-.3.1-.6.2-.9.2-.3 0-.6-.1-.8-.2l-.1-.1 1 10.1.6.9c1.6 1.1 5.8 1.8 10.7 1.8 4.5 0 8.4-.6 10.2-1.5l.7-1.2 1.4-12-.3.3c0 .8-.4 1.1-.7 1.4zM50 32.2c-8 0-14.4.7-14.4 1.7 0 .9 6.4 2.3 14.4 2.3s14.4-1.4 14.4-2.3c0-.9-6.4-1.7-14.4-1.7zm2.6 2.7c-.9 0-1.7-.3-1.7-.5 0-.1.1-.2.3-.3.1-.2.7-.4 1.4-.4s1.3.2 1.4.4c.2.1.4.2.4.3-.1.2-.9.5-1.8.5zm0-.3c.8 0 1.4-.2 1.4-.4v-.1c-.3-.1-.9-.2-1.4-.2-.6 0-1.1.1-1.4.2v.1c-.1.2.6.4 1.4.4zm10.5-15.7l-1.9-1.4-7.7 8.1-2.2 8.5H54l2.2-7.6 6.9-7.6z"/></svg>