<svg xmlns="http://www.w3.org/2000/svg" viewBox="0 0 100 100" enable-background="new 0 0 100 100"><path fill="#515251" d="M39.8 47.7c-.1.8-.3 1.5-.4 2.3-2.2 11.8-3.4 16.1-5 16.4-1.7 0-1-.3-2.1-5-1-4.7-1.9-7.5-3-9 .2-.8.3-1.6.5-2.4 2.2-11.8 3.5-16.1 5-16.4h.5c1.6 0 3.1 7 4.5 14.1zM72.8 51.1h9.5c-3.3 1.1-4.4 3.3-5 9.6-.4 4.5-2.4 5.7-2.4 5.7-1.5 0-3-6.5-4.4-13.3.6-1.2 1.3-1.8 2.3-2zM74.9 66.4h-9.5c1.7 0 2.9-3.2 3.6-7.3.5-2.7.9-4.7 1.6-6.1 1.2 6.9 2.7 13.4 4.3 13.4z"/><path fill="#9B9A9A" d="M70.5 53c-.7 1.3-1.2 3.3-1.6 6.1-.7 4.1-1.9 7.3-3.6 7.3-1.8-.4-3.3-7.3-5.2-17.8-.1-.3-.1-.6-.2-1 1.5-7.5 3-14 4.5-14h.6c1.8.4 3.3 7.3 5.2 17.8.1.4.2 1 .3 1.6z"/><path fill="#515251" d="M55.5 33.5h9c-1.5 0-3.1 6.5-4.5 14.1-1.3-7.1-2.9-14.1-4.5-14.1zM60 47.6c-.1.8-.3 1.5-.4 2.3-2.2 11.8-3.4 16.1-5 16.4-1.7 0-3.3-7.6-4.7-15.1 0-.1-.1-.2-.1-.3.1-.3.1-.6.2-1 2.2-11.8 3.4-16.1 4.9-16.4h.5c1.7 0 3.3 7 4.6 14.1zM54.6 66.4h-9.5c1.6 0 3.3-7.3 4.7-15.4 0 .1.1.2.1.3 1.4 7.5 3.1 15.1 4.7 15.1z"/><path fill="#9B9A9A" d="M49.9 51c-1.5 8.2-3.1 15.4-4.7 15.4-1.8-.4-3.3-7.3-5.2-17.8-.1-.3-.1-.6-.2-1 1.4-7.6 2.9-14.1 4.4-14.1h.5c1.9.4 3.3 7.1 5.2 17.5z"/><path fill="#515251" d="M35.3 33.5h9c-1.5 0-3 6.5-4.5 14.1-1.4-7.1-2.9-14.1-4.5-14.1zM34.4 66.4h-9.5c1.5 0 3-6.5 4.5-14 1 1.5 1.9 4.3 3 9 1 4.7.3 5 2 5z"/><path fill="#9B9A9A" d="M29.4 52.4c-1.5 7.5-3 14-4.5 14-.2-.2-1.2 0-2.2-5.8-.9-5.4-2.4-8.7-5-9.4h9.5c.9-.1 1.6.3 2.2 1.2z"/></svg>